<?xml version="1.0" encoding="utf-8"?>
<!-- Generator: Adobe Illustrator 19.0.0, SVG Export Plug-In . SVG Version: 6.00 Build 0)  -->
<svg version="1.1" id="Layer_1" xmlns="http://www.w3.org/2000/svg" xmlns:xlink="http://www.w3.org/1999/xlink" x="0px" y="0px"
	 viewBox="-423 20.3 112 88.7" style="enable-background:new -423 20.3 112 88.7;" xml:space="preserve">
<style type="text/css">
	.st0{fill:#5603AD;}
</style>
<path class="st0" d="M-331.7,88.1c5.3-6.6,7.9-13.3,7.9-20c0.1-2.5-0.3-5-1-7.4c-3.7,3-8.3,4.6-13.1,4.6c-6,0.2-11.7-2-16.1-6.1
	c-4.3-4.1-6.4-9.5-6.4-16.4c-0.2-6,2.2-11.8,6.5-16c4.2-4.2,10-6.6,16-6.5c9,0,16,3.7,20.8,11.2c4,6.2,6,13.9,6,23.2
	c0.2,11.2-3,22.3-9,31.7c-6,9.3-15.1,16.9-27.3,22.6l-3.3-6.4C-343.1,99.5-336.6,94.5-331.7,88.1z M-394.3,88.1
	c5.3-6.6,7.9-13.3,7.9-20c0.1-2.5-0.3-5-1-7.4c-3.7,3-8.3,4.6-13.1,4.6c-6,0.2-11.7-2-16.1-6.1c-4.3-4-6.5-9.5-6.5-16.4
	c-0.2-6,2.2-11.9,6.5-16.1c4.2-4.2,10-6.6,16-6.5c9.1,0,16,3.7,20.8,11.2c4,6.2,6,13.9,6,23.2c0.2,11.2-3,22.3-9,31.7
	c-6,9.3-15.1,16.9-27.2,22.6l-3.3-6.4C-405.8,99.5-399.3,94.5-394.3,88.1z"/>
</svg>
