<?xml version="1.0" encoding="utf-8"?>
<!-- Generator: Adobe Illustrator 19.0.0, SVG Export Plug-In . SVG Version: 6.00 Build 0)  -->
<svg version="1.1" id="Layer_1" xmlns="http://www.w3.org/2000/svg" xmlns:xlink="http://www.w3.org/1999/xlink" x="0px" y="0px"
	 viewBox="-423 20.3 112 88.7" style="enable-background:new -423 20.3 112 88.7;" xml:space="preserve">
<style type="text/css">
	.st0{fill:#5603AD;}
</style>
<path class="st0" d="M-402.4,41.2c-5.3,6.6-7.9,13.3-7.9,20c-0.1,2.5,0.3,5,1,7.4c3.7-3,8.3-4.6,13.1-4.6c6-0.2,11.7,2,16.1,6.1
	c4.3,4.1,6.5,9.5,6.5,16.4c0.2,6-2.2,11.9-6.5,16.1c-4.2,4.2-10,6.6-16,6.4c-9,0-16-3.7-20.8-11.1c-4-6.2-6-13.9-6-23.2
	c-0.2-11.2,3-22.3,9-31.7c6-9.3,15.1-16.9,27.3-22.6l3.3,6.4C-390.9,29.8-397.4,34.8-402.4,41.2z M-339.7,41.2
	c-5.3,6.6-7.9,13.3-7.9,20c-0.1,2.5,0.3,5,1,7.4c3.7-3,8.3-4.6,13.1-4.6c6-0.2,11.7,2,16.1,6.1c4.3,4.1,6.5,9.6,6.5,16.5
	c0.2,6-2.2,11.9-6.5,16.1c-4.2,4.3-10,6.6-16,6.4c-9.1,0-16-3.7-20.8-11.2c-4-6.2-6-13.9-6-23.2c-0.2-11.2,3-22.3,9-31.7
	c6-9.3,15.1-16.9,27.3-22.6l3.3,6.4C-328.2,29.8-334.8,34.8-339.7,41.2z"/>
</svg>
